<?xml version="1.0" encoding="UTF-8"?>
<!DOCTYPE svg PUBLIC "-//W3C//DTD SVG 1.1//EN" "http://www.w3.org/Graphics/SVG/1.1/DTD/svg11.dtd">
<svg xmlns="http://www.w3.org/2000/svg" version="1.1" width="256px" height="256px" style="shape-rendering:geometricPrecision; text-rendering:geometricPrecision; image-rendering:optimizeQuality; fill-rule:evenodd; clip-rule:evenodd" xmlns:xlink="http://www.w3.org/1999/xlink">
<g><path style="opacity:1" fill="#263c5b" d="M -0.5,-0.5 C 84.8333,-0.5 170.167,-0.5 255.5,-0.5C 255.5,84.8333 255.5,170.167 255.5,255.5C 170.167,255.5 84.8333,255.5 -0.5,255.5C -0.5,170.167 -0.5,84.8333 -0.5,-0.5 Z"/></g>
<g><path style="opacity:1" fill="#60b9c0" d="M 200.5,85.5 C 175.888,91.2209 165.221,81.5543 168.5,56.5C 177.653,43.376 189.319,40.876 203.5,49C 214.747,62.1843 213.747,74.351 200.5,85.5 Z"/></g>
<g><path style="opacity:1" fill="#fdfdfe" d="M 168.5,56.5 C 165.221,81.5543 175.888,91.2209 200.5,85.5C 211.341,107.229 213.508,129.896 207,153.5C 196.537,183.627 175.704,202.127 144.5,209C 132.873,210.301 121.206,210.801 109.5,210.5C 109.5,194.5 109.5,178.5 109.5,162.5C 124.895,164.17 138.895,160.67 151.5,152C 161.826,137.907 162.992,123.074 155,107.5C 148.199,99.2194 139.366,94.7194 128.5,94C 119.506,93.5002 110.506,93.3336 101.5,93.5C 100.501,132.33 100.168,171.33 100.5,210.5C 84.1667,210.5 67.8333,210.5 51.5,210.5C 51.5,155.833 51.5,101.167 51.5,46.5C 76.8355,46.3334 102.169,46.5 127.5,47C 141.81,47.5608 155.476,50.7274 168.5,56.5 Z"/></g>
<g><path style="opacity:1" fill="#8f9aaa" d="M 101.5,93.5 C 101.5,132.833 101.5,172.167 101.5,211.5C 84.6583,211.83 67.9916,211.497 51.5,210.5C 67.8333,210.5 84.1667,210.5 100.5,210.5C 100.168,171.33 100.501,132.33 101.5,93.5 Z"/></g>
</svg>
