<?xml version="1.0" encoding="UTF-8"?>
<svg version="1.1" xmlns="http://www.w3.org/2000/svg" width="225" height="225">
<path d="M0 0 C74.25 0 148.5 0 225 0 C225 74.25 225 148.5 225 225 C150.75 225 76.5 225 0 225 C0 150.75 0 76.5 0 0 Z " fill="#0A131F" transform="translate(0,0)"/>
<path d="M0 0 C2.31 0 4.62 0 7 0 C7 13.2 7 26.4 7 40 C1.988125 40.1546875 1.988125 40.1546875 -3.125 40.3125 C-4.16672363 40.35802002 -5.20844727 40.40354004 -6.28173828 40.45043945 C-10.79702776 40.51774758 -14.02730242 40.52673728 -17.625 37.59375 C-20.82277466 34.10144346 -20.82277466 34.10144346 -21 31 C-21.0825 29.72125 -21.165 28.4425 -21.25 27.125 C-21.18253071 23.09933263 -20.28423508 20.38696926 -18 17 C-13.78414574 13.29515838 -8.42987404 13.03681271 -3 13 C-2.01 13.33 -1.02 13.66 0 14 C0 9.38 0 4.76 0 0 Z " fill="#DFE2E3" transform="translate(120,92)"/>
<path d="M0 0 C1.65 0 3.3 0 5 0 C5 0.66 5 1.32 5 2 C5.68707031 1.66097656 6.37414063 1.32195312 7.08203125 0.97265625 C10.58170706 -0.19390235 13.03549907 0.03357287 16.6875 0.4375 C20.99416969 1.11246069 20.99416969 1.11246069 25 0 C27.0234375 -0.01953125 27.0234375 -0.01953125 29.375 0.1875 C30.14585938 0.24292969 30.91671875 0.29835938 31.7109375 0.35546875 C35.04470984 1.29415891 36.08281265 2.05481853 38 5 C38.49116539 8.76137375 38.37488123 12.46513797 38.25 16.25 C38.23195312 17.28125 38.21390625 18.3125 38.1953125 19.375 C38.14822712 21.91761064 38.0824805 24.45833162 38 27 C36.02 27 34.04 27 32 27 C31.93941406 25.71222656 31.87882812 24.42445313 31.81640625 23.09765625 C31.73201753 21.41925841 31.6473687 19.74087364 31.5625 18.0625 C31.52318359 17.21236328 31.48386719 16.36222656 31.44335938 15.48632812 C31.40146484 14.67744141 31.35957031 13.86855469 31.31640625 13.03515625 C31.27974854 12.2862915 31.24309082 11.53742676 31.20532227 10.76586914 C31.18228937 8.97538674 31.18228937 8.97538674 30 8 C28.02 8 26.04 8 24 8 C23.67 14.27 23.34 20.54 23 27 C20.69 27 18.38 27 16 27 C15.67 20.4 15.34 13.8 15 7 C12.36 7 9.72 7 7 7 C7 13.6 7 20.2 7 27 C4.69 27 2.38 27 0 27 C0 18.09 0 9.18 0 0 Z " fill="#E4E6E9" transform="translate(47,105)"/>
<path d="M0 0 C0.7528125 -0.00257812 1.505625 -0.00515625 2.28125 -0.0078125 C4.473535 0.12341583 6.39319137 0.52168662 8.5 1.125 C8.17 2.775 7.84 4.425 7.5 6.125 C4.18929162 7.12609515 1.19915231 7.22856134 -2.25 7.1875 C-3.23484375 7.17847656 -4.2196875 7.16945313 -5.234375 7.16015625 C-5.98203125 7.14855469 -6.7296875 7.13695313 -7.5 7.125 C-4.85629353 10.37732954 -1.75074626 11.3492314 2.125 12.75 C8.41666667 15.04166667 8.41666667 15.04166667 9.5 16.125 C9.8125 18.9375 9.8125 18.9375 9.5 22.125 C7.6329009 24.42775556 6.14352259 25.80323871 3.5 27.125 C1.21080222 27.24835276 -1.08251218 27.30058478 -3.375 27.3125 C-5.22738281 27.33376953 -5.22738281 27.33376953 -7.1171875 27.35546875 C-10.24086712 27.14265455 -11.90061596 26.77737226 -14.5 25.125 C-14.5 23.475 -14.5 21.825 -14.5 20.125 C-13.51 19.795 -12.52 19.465 -11.5 19.125 C-10.84 19.455 -10.18 19.785 -9.5 20.125 C-7.4625237 20.35358114 -5.41959697 20.53524278 -3.375 20.6875 C-1.73144531 20.81318359 -1.73144531 20.81318359 -0.0546875 20.94140625 C1.20988281 21.03228516 1.20988281 21.03228516 2.5 21.125 C2.5 20.135 2.5 19.145 2.5 18.125 C1.50419922 17.96064453 1.50419922 17.96064453 0.48828125 17.79296875 C-5.56120313 16.70671097 -10.04230503 15.58269497 -14.5 11.125 C-15 8.8125 -15 8.8125 -14.5 6.125 C-9.81480592 1.43980592 -6.45482363 -0.02210556 0 0 Z " fill="#EBEEEF" transform="translate(156.5,104.875)"/>
<path d="M0 0 C1.98 0 3.96 0 6 0 C6 12.87 6 25.74 6 39 C5.34 39 4.68 39 4 39 C4 38.34 4 37.68 4 37 C2.68 37 1.36 37 0 37 C0.33 31.39 0.66 25.78 1 20 C-1.8771875 20.0928125 -1.8771875 20.0928125 -4.8125 20.1875 C-10.53557692 20.37211538 -10.53557692 20.37211538 -12.88671875 18.48828125 C-13.25410156 17.99714844 -13.62148437 17.50601563 -14 17 C-13.505 15.515 -13.505 15.515 -13 14 C-11.39679026 13.80448662 -9.79237014 13.61888017 -8.1875 13.4375 C-7.29417969 13.33308594 -6.40085937 13.22867188 -5.48046875 13.12109375 C-3 13 -3 13 0 14 C0 9.38 0 4.76 0 0 Z " fill="#F8FAFB" transform="translate(120,92)"/>
<path d="M0 0 C6.93 0 13.86 0 21 0 C21 6.93 21 13.86 21 21 C19.35 21.66 17.7 22.32 16 23 C15.49564306 21.0636296 14.99666126 19.12585854 14.5 17.1875 C14.2215625 16.10855469 13.943125 15.02960938 13.65625 13.91796875 C13 11 13 11 13 8 C8.01716284 6.85948394 3.05531868 5.77774134 -2 5 C-2 4.01 -2 3.02 -2 2 C-1.34 2 -0.68 2 0 2 C0 1.34 0 0.68 0 0 Z " fill="#BA2F23" transform="translate(160,90)"/>
<path d="M0 0 C1.06734375 -0.01224609 2.1346875 -0.02449219 3.234375 -0.03710938 C4.25789063 -0.03904297 5.28140625 -0.04097656 6.3359375 -0.04296875 C7.74818604 -0.04913208 7.74818604 -0.04913208 9.18896484 -0.05541992 C11.625 0.1875 11.625 0.1875 14.625 2.1875 C16.65296416 6.98086982 16.04479804 13.29708453 14.625 18.1875 C14.2753582 20.51844534 13.93945513 22.85154762 13.625 25.1875 C12.965 24.8575 12.305 24.5275 11.625 24.1875 C11.955 17.2575 12.285 10.3275 12.625 3.1875 C5.695 3.1875 -1.235 3.1875 -8.375 3.1875 C-8.375 3.8475 -8.375 4.5075 -8.375 5.1875 C-9.035 5.1875 -9.695 5.1875 -10.375 5.1875 C-10.375 6.1775 -10.375 7.1675 -10.375 8.1875 C-9.37919922 8.26097656 -9.37919922 8.26097656 -8.36328125 8.3359375 C2.11010053 9.22273479 2.11010053 9.22273479 4.625 11.1875 C5.65694741 14.47990365 6.20230357 17.76807518 6.625 21.1875 C5.635 21.8475 4.645 22.5075 3.625 23.1875 C2.965 19.8875 2.305 16.5875 1.625 13.1875 C0.34625 13.043125 -0.9325 12.89875 -2.25 12.75 C-4.63192894 12.48107254 -6.21952691 12.26523654 -8.375 11.1875 C-8.375 10.5275 -8.375 9.8675 -8.375 9.1875 C-10.025 9.1875 -11.675 9.1875 -13.375 9.1875 C-12.21461092 -1.25600168 -10.18127196 0.00610388 0 0 Z " fill="#270911" transform="translate(168.375,86.8125)"/>
<path d="M0 0 C0.66 0.33 1.32 0.66 2 1 C2.02685938 3.14576637 2.04633088 5.29162645 2.0625 7.4375 C2.07410156 8.63246094 2.08570312 9.82742187 2.09765625 11.05859375 C2 14 2 14 1 15 C-1.1796875 15.23828125 -1.1796875 15.23828125 -3.875 15.3125 C-5.20144531 15.36857422 -5.20144531 15.36857422 -6.5546875 15.42578125 C-9 15 -9 15 -10.7890625 13.19921875 C-12.58919985 9.92993704 -12.52314498 7.66201484 -12 4 C-8.41894347 -0.23215772 -5.36971627 -0.50657701 0 0 Z " fill="#141C21" transform="translate(118,111)"/>
<path d="M0 0 C2.31 0 4.62 0 7 0 C7 8.91 7 17.82 7 27 C4.69 27 2.38 27 0 27 C0 18.09 0 9.18 0 0 Z " fill="#E3E5E7" transform="translate(131,105)"/>
<path d="M0 0 C1.98 0 3.96 0 6 0 C6 8.91 6 17.82 6 27 C3.69 27 1.38 27 -1 27 C-1.02886537 22.68751391 -1.04675255 18.37505238 -1.0625 14.0625 C-1.07087891 12.83080078 -1.07925781 11.59910156 -1.08789062 10.33007812 C-1.09111328 9.16025391 -1.09433594 7.99042969 -1.09765625 6.78515625 C-1.10289307 5.70113525 -1.10812988 4.61711426 -1.11352539 3.50024414 C-1 1 -1 1 0 0 Z " fill="#E6E7E9" transform="translate(90,105)"/>
<path d="M0 0 C1.32 0.66 2.64 1.32 4 2 C4 9.26 4 16.52 4 24 C2.02 24 0.04 24 -2 24 C-2.33 17.07 -2.66 10.14 -3 3 C-2.01 2.67 -1.02 2.34 0 2 C0 1.34 0 0.68 0 0 Z " fill="#F6F9FA" transform="translate(81,108)"/>
<path d="M0 0 C0.33 0 0.66 0 1 0 C1 13.2 1 26.4 1 40 C-14 40 -14 40 -19 39 C-19 38.01 -19 37.02 -19 36 C-15.04 35.01 -11.08 34.02 -7 33 C-6.67 28.71 -6.34 24.42 -6 20 C-5.67 20 -5.34 20 -5 20 C-4.97300275 22.27076842 -4.95360547 24.54162821 -4.9375 26.8125 C-4.92589844 28.07707031 -4.91429688 29.34164062 -4.90234375 30.64453125 C-5 34 -5 34 -6 37 C-4.68 37 -3.36 37 -2 37 C-2 37.66 -2 38.32 -2 39 C-1.34 39 -0.68 39 0 39 C0 26.13 0 13.26 0 0 Z " fill="#D7DADB" transform="translate(126,92)"/>
<path d="M0 0 C0.33 0 0.66 0 1 0 C1.06058594 0.77085938 1.12117187 1.54171875 1.18359375 2.3359375 C1.26738281 3.33882813 1.35117188 4.34171875 1.4375 5.375 C1.51871094 6.37273437 1.59992188 7.37046875 1.68359375 8.3984375 C1.84965626 10.97927613 1.84965626 10.97927613 3 13 C5.64 13 8.28 13 11 13 C11 13.33 11 13.66 11 14 C8.69 14.33 6.38 14.66 4 15 C3.67 23.91 3.34 32.82 3 42 C2.01 42 1.02 42 0 42 C0 28.14 0 14.28 0 0 Z " fill="#050A0E" transform="translate(127,91)"/>
<path d="M0 0 C1.485 0.99 1.485 0.99 3 2 C3.66 1.34 4.32 0.68 5 0 C5 9.24 5 18.48 5 28 C4.01 28 3.02 28 2 28 C1.95101562 26.70964844 1.90203125 25.41929687 1.8515625 24.08984375 C1.77648197 22.37237653 1.70093646 20.65492959 1.625 18.9375 C1.57859375 17.66616211 1.57859375 17.66616211 1.53125 16.36914062 C1.34805029 12.41508013 1.06917734 8.79848066 -0.1015625 5.00390625 C-1 2 -1 2 0 0 Z " fill="#080A0E" transform="translate(84,105)"/>
<path d="M0 0 C0.99 0 1.98 0 3 0 C4.1482685 2.296537 4.11561175 3.58313167 4.09765625 6.1328125 C4.09282227 7.34130859 4.09282227 7.34130859 4.08789062 8.57421875 C4.07951172 9.41597656 4.07113281 10.25773437 4.0625 11.125 C4.05798828 11.97449219 4.05347656 12.82398437 4.04882812 13.69921875 C4.03702874 15.79950909 4.01909306 17.8997633 4 20 C2.35 20 0.7 20 -1 20 C-1.02696009 17.2291017 -1.04681952 14.4584655 -1.0625 11.6875 C-1.07087891 10.90181641 -1.07925781 10.11613281 -1.08789062 9.30664062 C-1.09111328 8.54931641 -1.09433594 7.79199219 -1.09765625 7.01171875 C-1.10289307 6.31522217 -1.10812988 5.61872559 -1.11352539 4.90112305 C-1 3 -1 3 0 0 Z " fill="#FAFBFD" transform="translate(65,112)"/>
<path d="M0 0 C2.64 0.33 5.28 0.66 8 1 C8 4.96 8 8.92 8 13 C6.35 13.66 4.7 14.32 3 15 C2.49564306 13.0636296 1.99666126 11.12585854 1.5 9.1875 C1.2215625 8.10855469 0.943125 7.02960938 0.65625 5.91796875 C0 3 0 3 0 0 Z " fill="#C7B475" transform="translate(173,98)"/>
<path d="M0 0 C0.56847656 0.26554687 1.13695312 0.53109375 1.72265625 0.8046875 C6.43192114 2.95884206 10.98231131 4.71888799 16 6 C16 6.99 16 7.98 16 9 C14.06318839 9.08107583 12.1254066 9.13922475 10.1875 9.1875 C9.10855469 9.22230469 8.02960938 9.25710937 6.91796875 9.29296875 C3.64887965 8.96474695 3.01387985 8.45579706 1 6 C-0.051875 5.7525 -0.051875 5.7525 -1.125 5.5 C-1.74375 5.335 -2.3625 5.17 -3 5 C-3.33 4.01 -3.66 3.02 -4 2 C-3.34 2 -2.68 2 -2 2 C-1.67 2.33 -1.34 2.66 -1 3 C-0.67 2.01 -0.34 1.02 0 0 Z " fill="#161C23" transform="translate(143,117)"/>
<path d="M0 0 C0.80566406 0.07863281 1.61132812 0.15726562 2.44140625 0.23828125 C3.42947266 0.46064453 3.42947266 0.46064453 4.4375 0.6875 C4.7675 1.3475 5.0975 2.0075 5.4375 2.6875 C3.3125 5.25 3.3125 5.25 0.4375 7.6875 C-2.875 7.5 -2.875 7.5 -5.5625 6.6875 C-5.8925 4.7075 -6.2225 2.7275 -6.5625 0.6875 C-4.07849398 -0.55450301 -2.74042364 -0.29471651 0 0 Z " fill="#D8DADF" transform="translate(76.5625,105.3125)"/>
<path d="M0 0 C6.93 0 13.86 0 21 0 C21 2.97 21 5.94 21 9 C20.34 9 19.68 9 19 9 C18.34 6.36 17.68 3.72 17 1 C12.38 1.33 7.76 1.66 3 2 C3.33 2.99 3.66 3.98 4 5 C2.02 5 0.04 5 -2 5 C-2 4.01 -2 3.02 -2 2 C-1.34 2 -0.68 2 0 2 C0 1.34 0 0.68 0 0 Z " fill="#A63636" transform="translate(160,90)"/>
<path d="M0 0 C0.33 0 0.66 0 1 0 C1.33 1.65 1.66 3.3 2 5 C2.66 5 3.32 5 4 5 C4.33 8.63 4.66 12.26 5 16 C4.34 16 3.68 16 3 16 C1.74050951 17.03406673 1.74050951 17.03406673 1.90234375 19.28515625 C1.91394531 20.20167969 1.92554688 21.11820313 1.9375 22.0625 C1.94652344 22.98160156 1.95554688 23.90070313 1.96484375 24.84765625 C1.97644531 25.55792969 1.98804688 26.26820313 2 27 C1.34 27.33 0.68 27.66 0 28 C0 18.76 0 9.52 0 0 Z " fill="#020308" transform="translate(138,105)"/>
<path d="M0 0 C-0.165 0.66 -0.33 1.32 -0.5 2 C-1.53701144 8.22206864 -1.34411866 13.13970335 1 19 C-0.32 19.99 -1.64 20.98 -3 22 C-4.17426264 19.65147472 -4.11508173 18.26225935 -4.09765625 15.6484375 C-4.09443359 14.79765625 -4.09121094 13.946875 -4.08789062 13.0703125 C-4.07951172 12.18085937 -4.07113281 11.29140625 -4.0625 10.375 C-4.05798828 9.4778125 -4.05347656 8.580625 -4.04882812 7.65625 C-4.03702591 5.43743352 -4.02056155 3.21874982 -4 1 C-2 0 -2 0 0 0 Z " fill="#080C11" transform="translate(101,110)"/>
<path d="M0 0 C1.22589844 0.01353516 1.22589844 0.01353516 2.4765625 0.02734375 C3.41628906 0.04474609 3.41628906 0.04474609 4.375 0.0625 C4.375 2.3725 4.375 4.6825 4.375 7.0625 C2.7251725 6.64031184 1.08016335 6.19925575 -0.5625 5.75 C-1.47902344 5.50636719 -2.39554688 5.26273437 -3.33984375 5.01171875 C-4.47099609 4.54185547 -4.47099609 4.54185547 -5.625 4.0625 C-5.955 3.0725 -6.285 2.0825 -6.625 1.0625 C-4.21954362 -0.14022819 -2.67503047 -0.03821472 0 0 Z " fill="#1E2126" transform="translate(155.625,110.9375)"/>
<path d="M0 0 C2.36120297 0.25392418 4.7150539 0.57798123 7.0625 0.9375 C8.35285156 1.13214844 9.64320313 1.32679687 10.97265625 1.52734375 C11.97167969 1.68332031 12.97070312 1.83929688 14 2 C14 2.33 14 2.66 14 3 C12.3603125 3.2165625 12.3603125 3.2165625 10.6875 3.4375 C7.06877013 3.88288104 7.06877013 3.88288104 4 5 C4 5.66 4 6.32 4 7 C4.99 7.33 5.98 7.66 7 8 C1.25 7.125 1.25 7.125 -1 6 C-1.042721 4.33388095 -1.04063832 2.66617115 -1 1 C-0.67 0.67 -0.34 0.34 0 0 Z " fill="#CFD1D4" transform="translate(143,124)"/>
<path d="M0 0 C0 0.33 0 0.66 0 1 C-1.65 1 -3.3 1 -5 1 C-5.33 1.99 -5.66 2.98 -6 4 C-8.64 3.67 -11.28 3.34 -14 3 C-14 2.34 -14 1.68 -14 1 C-9.47960531 -2.01359646 -4.72346836 -3.21195849 0 0 Z " fill="#F9F8FB" transform="translate(161,128)"/>
<path d="M0 0 C1.50433594 0.01353516 1.50433594 0.01353516 3.0390625 0.02734375 C3.80992188 0.03894531 4.58078125 0.05054687 5.375 0.0625 C5.375 0.7225 5.375 1.3825 5.375 2.0625 C4.715 2.0625 4.055 2.0625 3.375 2.0625 C3.045 3.0525 2.715 4.0425 2.375 5.0625 C-1.11734244 5.16228121 -4.21937148 4.84092938 -7.625 4.0625 C-7.625 3.0725 -7.625 2.0825 -7.625 1.0625 C-4.98041621 -0.25979189 -2.94738699 -0.03427194 0 0 Z " fill="#F2F4F7" transform="translate(55.625,105.9375)"/>
<path d="M0 0 C1.62463842 -0.05395478 3.24978541 -0.09277195 4.875 -0.125 C5.77992188 -0.14820312 6.68484375 -0.17140625 7.6171875 -0.1953125 C10 0 10 0 12 2 C11.67 2.99 11.34 3.98 11 5 C5.06 4.01 5.06 4.01 -1 3 C-0.67 2.01 -0.34 1.02 0 0 Z " fill="#D5231E" transform="translate(167,92)"/>
<path d="M0 0 C2.31 0 4.62 0 7 0 C7 1.98 7 3.96 7 6 C4.69 6 2.38 6 0 6 C0 4.02 0 2.04 0 0 Z " fill="#C5CBCC" transform="translate(131,98)"/>
<path d="M0 0 C0.33 0 0.66 0 1 0 C1 5.94 1 11.88 1 18 C2.98 18 4.96 18 7 18 C7 18.33 7 18.66 7 19 C5.1746875 19.2165625 5.1746875 19.2165625 3.3125 19.4375 C0.17329623 19.82780953 -2.9075134 20.32351856 -6 21 C-6 20.34 -6 19.68 -6 19 C-5.01 19 -4.02 19 -3 19 C-2.67 17.68 -2.34 16.36 -2 15 C-2 15.99 -2 16.98 -2 18 C-1.34 18 -0.68 18 0 18 C0 12.06 0 6.12 0 0 Z " fill="#3D434A" transform="translate(78,114)"/>
<path d="M0 0 C2.64 0 5.28 0 8 0 C8.93423645 3.01031744 9.04449911 3.86650268 8 7 C4.125 6.125 4.125 6.125 3 5 C2.34 5 1.68 5 1 5 C0.67 3.35 0.34 1.7 0 0 Z " fill="#191E26" transform="translate(54,112)"/>
<path d="M0 0 C0.33 0 0.66 0 1 0 C1.02505615 0.70608398 1.0501123 1.41216797 1.07592773 2.13964844 C1.19207369 5.34327509 1.31471603 8.54662118 1.4375 11.75 C1.47681641 12.86117187 1.51613281 13.97234375 1.55664062 15.1171875 C1.61948242 16.72207031 1.61948242 16.72207031 1.68359375 18.359375 C1.72025146 19.34389648 1.75690918 20.32841797 1.79467773 21.34277344 C1.9452083 24.25421319 1.9452083 24.25421319 3 28 C0.03 27.67 -2.94 27.34 -6 27 C-6 26.67 -6 26.34 -6 26 C-4.02 26 -2.04 26 0 26 C0 17.42 0 8.84 0 0 Z " fill="#30363B" transform="translate(96,106)"/>
<path d="M0 0 C0.66 0 1.32 0 2 0 C2 0.66 2 1.32 2 2 C2.66 2 3.32 2 4 2 C4 2.99 4 3.98 4 5 C3.34 5 2.68 5 2 5 C2.66 5.66 3.32 6.32 4 7 C6.10820797 6.6814823 6.10820797 6.6814823 8 6 C5.6875 8.5 5.6875 8.5 3 11 C2.01 11 1.02 11 0 11 C-0.33 8.69 -0.66 6.38 -1 4 C-0.34 4 0.32 4 1 4 C0.67 2.68 0.34 1.36 0 0 Z " fill="#151B24" transform="translate(139,100)"/>
<path d="M0 0 C1.4540625 0.0309375 1.4540625 0.0309375 2.9375 0.0625 C2.9375 2.0425 2.9375 4.0225 2.9375 6.0625 C0.9575 6.0625 -1.0225 6.0625 -3.0625 6.0625 C-3.44468767 4.40635343 -3.77645102 2.73792976 -4.0625 1.0625 C-3.0625 0.0625 -3.0625 0.0625 0 0 Z " fill="#CED2D3" transform="translate(93.0625,97.9375)"/>
<path d="M0 0 C1.22589844 0.29197266 1.22589844 0.29197266 2.4765625 0.58984375 C3.41628906 0.82380859 3.41628906 0.82380859 4.375 1.0625 C4.375 2.0525 4.375 3.0425 4.375 4.0625 C3.116875 4.10375 1.85875 4.145 0.5625 4.1875 C-0.14519531 4.21070312 -0.85289062 4.23390625 -1.58203125 4.2578125 C-3.625 4.0625 -3.625 4.0625 -6.625 2.0625 C-6.625 1.4025 -6.625 0.7425 -6.625 0.0625 C-3.99249612 -1.25375194 -2.82320944 -0.68563658 0 0 Z " fill="#14171B" transform="translate(154.625,121.9375)"/>
<path d="M0 0 C2.97 0.33 5.94 0.66 9 1 C9.66 4.3 10.32 7.6 11 11 C10.01 11.66 9.02 12.32 8 13 C7.67 9.37 7.34 5.74 7 2 C4.69 1.67 2.38 1.34 0 1 C0 0.67 0 0.34 0 0 Z " fill="#251106" transform="translate(164,97)"/>
<path d="M0 0 C0.66 0 1.32 0 2 0 C2.33 3.63 2.66 7.26 3 11 C2.34 11 1.68 11 1 11 C-1.08997373 7.60379269 -1.2632246 4.94836905 -1 1 C-0.67 0.67 -0.34 0.34 0 0 Z " fill="#0B1015" transform="translate(140,110)"/>
<path d="M0 0 C1.32 0.33 2.64 0.66 4 1 C3.67 3.97 3.34 6.94 3 10 C2.01 9.67 1.02 9.34 0 9 C0 6.03 0 3.06 0 0 Z " fill="#EDBF4D" transform="translate(176,99)"/>
<path d="M0 0 C2.70705488 3.3384591 3.51178906 5.70374369 4 10 C4.66 9.67 5.32 9.34 6 9 C6.66 9.66 7.32 10.32 8 11 C7.34 11 6.68 11 6 11 C5.67 11.66 5.34 12.32 5 13 C4.34 12.67 3.68 12.34 3 12 C2.67 12.66 2.34 13.32 2 14 C0.99740493 10.99221479 0.69685358 8.46179353 0.4375 5.3125 C0.35371094 4.31863281 0.26992187 3.32476562 0.18359375 2.30078125 C0.12300781 1.54152344 0.06242187 0.78226562 0 0 Z " fill="#181F26" transform="translate(96,98)"/>
<path d="M0 0 C2.4375 0.375 2.4375 0.375 5 1 C5.33 1.66 5.66 2.32 6 3 C5.34 3 4.68 3 4 3 C4.33 4.65 4.66 6.3 5 8 C3 6.66666667 1 5.33333333 -1 4 C-0.67 2.68 -0.34 1.36 0 0 Z " fill="#0D142D" transform="translate(165,101)"/>
<path d="M0 0 C0.33 0 0.66 0 1 0 C1 3.3 1 6.6 1 10 C0.34 10 -0.32 10 -1 10 C-1 10.66 -1 11.32 -1 12 C-2.65 11.67 -4.3 11.34 -6 11 C-5.34 10.67 -4.68 10.34 -4 10 C-3.34 9.01 -2.68 8.02 -2 7 C-1.34 7.33 -0.68 7.66 0 8 C0 5.36 0 2.72 0 0 Z " fill="#050C11" transform="translate(118,114)"/>
<path d="M0 0 C0.99 0 1.98 0 3 0 C3.06058594 0.69867188 3.12117187 1.39734375 3.18359375 2.1171875 C3.26738281 3.02726562 3.35117188 3.93734375 3.4375 4.875 C3.55931641 6.23238281 3.55931641 6.23238281 3.68359375 7.6171875 C3.86989285 10.01110861 3.86989285 10.01110861 5 12 C4.01 11.67 3.02 11.34 2 11 C1.34 7.37 0.68 3.74 0 0 Z " fill="#D3AE6A" transform="translate(173,98)"/>
<path d="M0 0 C1.32 0 2.64 0 4 0 C4 2.97 4 5.94 4 9 C3.34 9 2.68 9 2 9 C1.34 6.03 0.68 3.06 0 0 Z " fill="#983230" transform="translate(177,90)"/>
<path d="M0 0 C1.0625 1.8125 1.0625 1.8125 2 4 C1.67 4.99 1.34 5.98 1 7 C1.33 7.99 1.66 8.98 2 10 C-0.46800047 8.84826645 -2.04783565 7.95216435 -4 6 C-3.34 6 -2.68 6 -2 6 C-1.34 4.02 -0.68 2.04 0 0 Z " fill="#131A21" transform="translate(165,107)"/>
<path d="M0 0 C1.4540625 0.0309375 1.4540625 0.0309375 2.9375 0.0625 C2.9375 1.0525 2.9375 2.0425 2.9375 3.0625 C2.2775 3.0625 1.6175 3.0625 0.9375 3.0625 C0.6075 3.7225 0.2775 4.3825 -0.0625 5.0625 C-0.7225 4.7325 -1.3825 4.4025 -2.0625 4.0625 C-2.0625 3.4025 -2.0625 2.7425 -2.0625 2.0625 C-2.7225 1.7325 -3.3825 1.4025 -4.0625 1.0625 C-3.0625 0.0625 -3.0625 0.0625 0 0 Z " fill="#0F151D" transform="translate(74.0625,111.9375)"/>
<path d="M0 0 C0.66 0.33 1.32 0.66 2 1 C2 4 2 4 0.6875 5.38671875 C-0.875 6.59114583 -2.4375 7.79557292 -4 9 C-4.25 6.75 -4.25 6.75 -4 4 C-2 1.6875 -2 1.6875 0 0 Z " fill="#D8DBE0" transform="translate(146,107)"/>
<path d="M0 0 C0.68707555 2.49064888 1 4.37886292 1 7 C-0.98 6.34 -2.96 5.68 -5 5 C-4.360625 4.731875 -3.72125 4.46375 -3.0625 4.1875 C-0.66868314 3.11332248 -0.66868314 3.11332248 0 0 Z " fill="#242A34" transform="translate(165,127)"/>
<path d="M0 0 C0.66 0 1.32 0 2 0 C2.33 1.98 2.66 3.96 3 6 C1.35 6.66 -0.3 7.32 -2 8 C-2 7.34 -2 6.68 -2 6 C-1.34 6 -0.68 6 0 6 C0 5.34 0 4.68 0 4 C-0.66 4 -1.32 4 -2 4 C-1.34 2.68 -0.68 1.36 0 0 Z " fill="#050E19" transform="translate(45,128)"/>
<path d="M0 0 C0 1.32 0 2.64 0 4 C-2.64 3.34 -5.28 2.68 -8 2 C-5.44123378 -0.55876622 -3.37797483 -1.68898741 0 0 Z " fill="#252C34" transform="translate(160,114)"/>
<path d="M0 0 C0.66 0 1.32 0 2 0 C2.33 1.32 2.66 2.64 3 4 C2.01 4.66 1.02 5.32 0 6 C-0.33 5.34 -0.66 4.68 -1 4 C-1.66 4.66 -2.32 5.32 -3 6 C-3.33 4.68 -3.66 3.36 -4 2 C-2.68 2 -1.36 2 0 2 C0 1.34 0 0.68 0 0 Z " fill="#0B0C0D" transform="translate(180,112)"/>
<path d="M0 0 C-0.99 0.33 -1.98 0.66 -3 1 C-2.67 1.99 -2.34 2.98 -2 4 C-3.32 4 -4.64 4 -6 4 C-6 3.34 -6 2.68 -6 2 C-7.32 1.67 -8.64 1.34 -10 1 C-6.61981469 -0.04005702 -3.5219721 -0.08004482 0 0 Z " fill="#C9CFD0" transform="translate(117,105)"/>
<path d="M0 0 C1.65 0 3.3 0 5 0 C4.34 1.65 3.68 3.3 3 5 C1.68 4.67 0.36 4.34 -1 4 C-0.67 2.68 -0.34 1.36 0 0 Z " fill="#FAFBFE" transform="translate(73,106)"/>
<path d="M0 0 C1.98 0.495 1.98 0.495 4 1 C3.01 1.495 3.01 1.495 2 2 C2.99 3.32 3.98 4.64 5 6 C2.03 5.505 2.03 5.505 -1 5 C-0.67 3.35 -0.34 1.7 0 0 Z " fill="#1D2329" transform="translate(146,120)"/>
<path d="M0 0 C2.16874252 0.50603992 3.99967627 0.99983813 6 2 C6 3.32 6 4.64 6 6 C5.34 6 4.68 6 4 6 C2.375 4 2.375 4 1 2 C0.01 2.495 0.01 2.495 -1 3 C-0.67 2.01 -0.34 1.02 0 0 Z " fill="#151C20" transform="translate(100,129)"/>
<path d="M0 0 C1.32 0.66 2.64 1.32 4 2 C2.625 4 2.625 4 1 6 C0.34 6 -0.32 6 -1 6 C-1.042721 4.33388095 -1.04063832 2.66617115 -1 1 C-0.67 0.67 -0.34 0.34 0 0 Z " fill="#D8DFE3" transform="translate(143,124)"/>
<path d="M0 0 C0.99 0.33 1.98 0.66 3 1 C3.33 1.99 3.66 2.98 4 4 C3.01 5.485 3.01 5.485 2 7 C0.4375 5.75 0.4375 5.75 -1 4 C-0.6875 1.8125 -0.6875 1.8125 0 0 Z " fill="#E9ECEC" transform="translate(104,121)"/>
<path d="M0 0 C0.33 0.66 0.66 1.32 1 2 C1.66 2 2.32 2 3 2 C3.33 2.99 3.66 3.98 4 5 C3.67 5.66 3.34 6.32 3 7 C2.01 7 1.02 7 0 7 C0 4.69 0 2.38 0 0 Z " fill="#081113" transform="translate(107,117)"/>
<path d="M0 0 C0 0.33 0 0.66 0 1 C-1.65 1 -3.3 1 -5 1 C-5.33 1.66 -5.66 2.32 -6 3 C-6.99 2.67 -7.98 2.34 -9 2 C-9 1.34 -9 0.68 -9 0 C-5.93109813 -1.53445094 -3.29905734 -0.54984289 0 0 Z " fill="#070C14" transform="translate(149,132)"/>
<path d="M0 0 C2.475 0.99 2.475 0.99 5 2 C5 2.99 5 3.98 5 5 C4.01 5 3.02 5 2 5 C2 4.34 2 3.68 2 3 C1.34 3 0.68 3 0 3 C0 2.01 0 1.02 0 0 Z " fill="#DEE0E3" transform="translate(161,119)"/>
</svg>
